<?xml version="1.0" standalone="no"?><!DOCTYPE svg PUBLIC "-//W3C//DTD SVG 1.1//EN" "http://www.w3.org/Graphics/SVG/1.1/DTD/svg11.dtd"><svg t="1525255641444" class="icon" style="" viewBox="0 0 1226 1024" version="1.1" xmlns="http://www.w3.org/2000/svg" p-id="3013" xmlns:xlink="http://www.w3.org/1999/xlink" width="239.453125" height="200"><defs><style type="text/css"></style></defs><path d="M406.254896 576.58385c0 0 0 188.727964 207.799135 188.727964 207.826635 0 207.826635-188.727964 207.826635-188.727964S622.317747 759.013091 406.254896 576.58385L406.254896 576.58385M995.371194 499.68542c0-210.586623-170.731789-381.310913-381.317163-381.310913-210.622873 0-381.347163 170.724289-381.347163 381.310913 0 103.173321 41.014829 196.575432 107.448303 265.280146 30.214874 27.173637 63.163487 51.162287 99.429586 70.034708 19.714918 10.204958 41.474827 20.521165 64.289732 29.854876 34.879855 10.437457 71.865951 16.197433 110.179541 16.197433C824.639405 881.053833 995.371194 710.319543 995.371194 499.68542L995.371194 499.68542M614.054031 823.846571c-178.984255 0-324.142401-145.158146-324.142401-324.161151 0-178.990505 145.165646-324.071151 324.142401-324.071151 178.998005 0 324.112401 145.080646 324.112401 324.071151C938.166432 678.690925 793.052036 823.846571 614.054031 823.846571L614.054031 823.846571M1099.365761 380.015918C1045.713485 161.815576 848.749304 0 614.054031 0c-234.626523 0-431.433204 161.631827-485.20048 379.705919 0 0-134.60694 21.271161-128.656964 156.663098 5.964975 135.350687 147.919384 143.580652 147.919384 143.580652 1.712493 4.331232 31.553619-4.217482 42.267324-6.028725-22.121158-53.682277-34.427357-112.502032-34.427357-174.235525 0-252.972697 205.115396-458.048093 458.098093-458.048093 252.973947 0 458.048093 205.075396 458.048093 458.048093 0 201.88791-130.546957 373.173447-311.828702 434.143193-11.662451 3.983733-23.9474-1.294995-23.9474-1.294995s-30.732372-5.753726-69.255962 5.123729c-18.949921 5.434977-27.102387 25.637393-25.962392 43.371069 1.421244 21.108662 9.417461 36.272349 31.482369 39.627335 28.398632 4.451231 68.775964 9.488711 84.0184-20.874913 4.139983-8.237466 8.626214-23.557402 18.319924-26.834888 140.076917-47.623552 252.18895-155.674352 305.374979-293.03378 0 0 141.174412-16.551181 145.313145-146.699389C1229.785218 403.099572 1099.365761 380.015918 1099.365761 380.015918L1099.365761 380.015918M1099.365761 380.015918 1099.365761 380.015918z" p-id="3014"></path><path d="M512.506954 395.385854m-39.378586 0a31.503 31.503 0 1 0 78.757172 0 31.503 31.503 0 1 0-78.757172 0Z" p-id="3015"></path><path d="M720.627338 395.385854m-39.378586 0a31.503 31.503 0 1 0 78.757172 0 31.503 31.503 0 1 0-78.757172 0Z" p-id="3016"></path></svg>