<?xml version="1.0" standalone="no"?><!DOCTYPE svg PUBLIC "-//W3C//DTD SVG 1.1//EN" "http://www.w3.org/Graphics/SVG/1.1/DTD/svg11.dtd"><svg t="1525231151979" class="icon" style="" viewBox="0 0 1024 1024" version="1.1" xmlns="http://www.w3.org/2000/svg" p-id="3018" xmlns:xlink="http://www.w3.org/1999/xlink" width="200" height="200"><defs><style type="text/css"></style></defs><path d="M369.182782 373.286752l0 8.546653c0 6.293333 4.6366 11.395538 10.354835 11.395538l389.782448 0c5.718235 0 10.354835-5.102205 10.354835-11.395538l0-8.546653c0-6.293333-4.6366-11.395538-10.354835-11.395538L379.538641 361.891214C373.820406 361.891214 369.182782 366.993418 369.182782 373.286752z" p-id="3019"></path><path d="M769.321088 496.060983 379.538641 496.060983c-5.718235 0-10.354835 5.102205-10.354835 11.395538l0 8.546653c0 6.293333 4.6366 11.396561 10.354835 11.396561l389.782448 0c5.718235 0 10.354835-5.102205 10.354835-11.396561l0-8.546653C779.675924 501.163187 775.039323 496.060983 769.321088 496.060983z" p-id="3020"></path><path d="M769.321088 634.079406 379.538641 634.079406c-5.718235 0-10.354835 5.102205-10.354835 11.396561l0 8.546653c0 6.293333 4.6366 11.396561 10.354835 11.396561l389.782448 0c5.718235 0 10.354835-5.102205 10.354835-11.396561l0-8.546653C779.675924 639.181611 775.039323 634.079406 769.321088 634.079406z" p-id="3021"></path><path d="M882.930589 276.341792 717.488583 78.137615c-8.151657-9.765411-15.668865-12.386098-20.136619-12.984732l-6.1777 0-15.349593 0L300.512796 65.152882c-24.101931 0-43.710524 19.608593-43.710524 43.710524l0 97.498568-87.032192 0c-24.101931 0-43.710524 19.608593-43.710524 43.710524L126.059556 916.793326c0 24.101931 19.608593 43.710524 43.710524 43.710524l549.649482 0c24.101931 0 43.710524-19.608593 43.710524-43.710524l0-87.265506 87.033215 0c24.101931 0 43.710524-19.608593 43.710524-43.710524L893.873826 325.691757l0-15.349593 0-9.058306C893.83187 299.079656 893.078717 288.500717 882.930589 276.341792zM706.52488 112.909559l151.98553 182.083012L719.536218 294.992571c-7.175423 0-13.012362-5.836939-13.012362-13.011338L706.523857 112.909559zM732.4309 916.793326c0 7.1744-5.836939 13.011338-13.011338 13.011338L169.77008 929.804664c-7.1744 0-13.011338-5.836939-13.011338-13.011338L156.758742 250.071476c0-7.1744 5.836939-13.011338 13.011338-13.011338l87.032192 0 0 548.757159c0 24.101931 19.608593 43.710524 43.710524 43.710524l431.918104 0L732.4309 916.793326zM863.17464 785.817296c0 7.1744-5.836939 13.011338-13.011338 13.011338L300.512796 798.828634c-7.1744 0-13.011338-5.836939-13.011338-13.011338L287.501458 108.862383c0-7.1744 5.836939-13.011338 13.011338-13.011338L675.825694 95.851045l0 186.130188c0 24.101931 19.608593 43.710524 43.711548 43.710524l143.637398 0L863.17464 785.817296z" p-id="3022"></path></svg>