<?xml version="1.0" standalone="no"?><!DOCTYPE svg PUBLIC "-//W3C//DTD SVG 1.1//EN" "http://www.w3.org/Graphics/SVG/1.1/DTD/svg11.dtd"><svg class="icon" width="200px" height="200.00px" viewBox="0 0 1024 1024" version="1.1" xmlns="http://www.w3.org/2000/svg"><path fill="#333333" d="M241.613191 0C308.326758 0 368.640328 27.033586 412.416306 70.758365l1.535999 1.587199a240.79348 240.79348 0 0 1 69.222365 169.215915v215.039893a26.623987 26.623987 0 0 1-26.623986 26.623986H241.664391a240.63988 240.63988 0 0 1-170.751914-70.809564v-0.0512l-0.1024 0.0512A240.84468 240.84468 0 0 1 0.000512 241.561479c0-66.611167 27.033586-127.078336 70.758365-170.803114A240.94708 240.94708 0 0 1 241.613191 0z m133.119934 108.390346a187.750306 187.750306 0 0 0-133.119934-55.091173 187.750306 187.750306 0 0 0-133.222333 55.091173 187.750306 187.750306 0 0 0-55.091173 133.171133c0 52.070374 20.99199 99.12315 55.091173 133.222334v0.0512A187.955106 187.955106 0 0 0 241.664391 429.874985h188.262306V241.561479c0-51.353574-20.47999-97.894351-53.759973-131.891134l-1.331199-1.279999z m307.711846 459.05897c0-14.643193 11.980794-26.623987 26.675186-26.623986h73.267164c66.764767 0 127.129536 27.033586 170.854314 70.758364l1.536 1.587199A240.84468 240.84468 0 0 1 1024 782.438009a240.63988 240.63988 0 0 1-70.758365 170.700714A240.74228 240.74228 0 0 1 782.387321 1023.999488a240.63988 240.63988 0 0 1-170.700715-70.758365 240.38388 240.38388 0 0 1-70.860764-170.803114v-215.039893a26.675187 26.675187 0 0 1 53.247973 0v215.039893c0 51.967974 21.094389 99.07195 55.142372 133.119933a187.699106 187.699106 0 0 0 133.171134 55.142373 188.159906 188.159906 0 0 0 188.313506-188.262306 187.903906 187.903906 0 0 0-53.759973-131.942334l-1.3312-1.28a187.699106 187.699106 0 0 0-133.222333-55.091172h-73.215964a26.675187 26.675187 0 0 1-26.726386-26.675187z m-440.83178 403.250999a188.159906 188.159906 0 0 0 188.262306-188.262306v-188.313506H241.664391a187.750306 187.750306 0 0 0-133.222333 55.091172 187.750306 187.750306 0 0 0-55.091173 133.222334c0 51.967974 20.99199 99.07195 55.091173 133.119933l1.279999 1.3824a187.852706 187.852706 0 0 0 131.942334 53.759973z m170.700715-17.407992A240.63988 240.63988 0 0 1 241.613191 1023.999488a240.84468 240.84468 0 0 1-169.267115-69.273565l-1.587199-1.4848A240.84468 240.84468 0 0 1 0.000512 782.438009c0-66.662367 27.033586-127.180736 70.758365-170.854315a240.94708 240.94708 0 0 1 170.854314-70.758364h214.937493a26.623987 26.623987 0 0 1 26.623986 26.623986v214.988693a240.63988 240.63988 0 0 1-70.758364 170.700714l-0.1024 0.1024zM782.336121 53.247973a187.750306 187.750306 0 0 0-133.119934 55.091173 187.750306 187.750306 0 0 0-55.142372 133.171133v188.313506h188.262306a188.159906 188.159906 0 0 0 188.313506-188.313506 188.006306 188.006306 0 0 0-55.039973-133.119933h-0.0512A187.750306 187.750306 0 0 0 782.336121 53.247973z m-170.803115 17.407992A240.94708 240.94708 0 0 1 782.336121 0c66.764767 0 127.129536 27.033586 170.854314 70.758365l-0.0512 0.0512 0.0512 0.1024A240.58868 240.58868 0 0 1 1024 241.561479a240.63988 240.63988 0 0 1-70.758365 170.751915l-0.1536 0.1024a240.63988 240.63988 0 0 1-170.700714 70.758364h-214.937493a26.623987 26.623987 0 0 1-26.623986-26.623986V241.561479c0-66.611167 27.033586-127.129536 70.758364-170.803114z" /></svg>