<?xml version="1.0" standalone="no"?><!DOCTYPE svg PUBLIC "-//W3C//DTD SVG 1.1//EN" "http://www.w3.org/Graphics/SVG/1.1/DTD/svg11.dtd"><svg class="icon" width="200px" height="200.00px" viewBox="0 0 1024 1024" version="1.1" xmlns="http://www.w3.org/2000/svg"><path fill="#333333" d="M509.546667 128.149333c48.512 0 116.245333 10.730667 163.434667 61.802667 37.290667 40.384 55.530667 99.669333 54.229333 176.234667-0.426667 24.341333 12.224 47.296 32.448 59.498667 2.944 2.773333 9.493333 18.965333 3.413333 44.053333-5.333333 22.229333-17.536 32.981333-20.416 34.048-23.424 3.2-43.242667 17.984-53.077333 39.445333-19.2 41.834667-45.077333 76.373333-74.837333 99.861333-5.290667 4.16-9.92 9.045333-13.76 14.549333-11.925333 17.045333-30.741333 50.666667-22.954667 84.522667l3.008 12.245333 6.656 9.856c11.2 16.490667 29.077333 27.242667 49.045333 29.504 17.493333 1.962667 79.424 9.962667 140.842667 30.122667 36.650667 12.010667 67.050667 26.24 90.368 42.282667 23.509333 16.192 39.338667 33.984 46.912 52.309333l0 19.925333-405.333333 0-405.333333 0 0-19.818667c7.872-18.773333 23.637333-36.373333 46.933333-52.416 23.317333-16.042667 53.717333-30.272 90.368-42.282667 61.397333-20.16 123.328-28.16 140.821333-30.122667 19.968-2.24 37.845333-12.992 48.938667-29.333333l7.125333-10.645333 2.709333-11.797333c7.744-33.685333-11.093333-67.306667-23.018667-84.352-3.84-5.504-8.469333-10.368-13.696-14.506667-29.802667-23.530667-55.68-58.069333-74.858667-99.882667-9.856-21.504-29.717333-36.245333-52.373333-39.296-3.605333-1.237333-15.808-11.989333-21.162667-34.218667-6.058667-25.088 0.490667-41.28 2.88-43.669333 20.778667-12.586667 33.429333-35.541333 33.002667-59.882667-1.301333-76.565333 16.938667-135.850667 54.250667-176.256C393.301333 138.88 461.034667 128.149333 509.546667 128.149333M509.546667 64.149333c-61.290667 0-147.562667 14.293333-210.432 82.389333-48.874667 52.885333-72.810667 127.146667-71.210667 220.736 0.021333 1.664-0.810667 3.221333-2.218667 4.074667-30.336 18.410667-43.712 64.448-31.914667 113.386667 10.773333 44.672 41.130667 77.952 73.984 82.474667 1.578667 0.213333 2.922667 1.237333 3.584 2.688 23.445333 51.072 55.594667 93.589333 93.376 123.434667 0.362667 0.277333 0.682667 0.576 0.938667 0.981333 7.701333 10.986667 14.677333 26.325333 13.077333 33.322667-0.042667 0.234667-0.170667 0.448-0.32 0.682667-0.725333 1.066667-1.941333 1.664-3.2 1.813333-22.954667 2.581333-87.744 11.264-153.664 32.896-42.432 13.952-78.336 30.890667-106.688 50.410667-36.48 25.109333-60.949333 54.784-72.704 88.277333l-0.085333 0.213333c-1.237333 3.733333-1.856 7.530667-1.856 11.264l0 49.6c0 21.845333 17.728 39.573333 39.594667 39.573333l429.738667 0 429.76 0c21.866667 0 39.573333-17.728 39.573333-39.573333l0-49.6c0-3.754667-0.618667-7.552-1.856-11.264l-0.085333-0.213333c-11.754667-33.472-36.224-63.168-72.704-88.277333-28.352-19.52-64.256-36.458667-106.688-50.410667-65.92-21.632-130.709333-30.314667-153.664-32.896-1.258667-0.149333-2.453333-0.746667-3.178667-1.813333-0.149333-0.234667-0.277333-0.448-0.32-0.682667-1.621333-6.976 5.376-22.336 13.056-33.322667 0.277333-0.405333 0.576-0.704 0.938667-0.981333 37.781333-29.845333 69.930667-72.384 93.376-123.434667 0.661333-1.450667 2.005333-2.474667 3.584-2.688 32.853333-4.522667 63.210667-37.802667 74.005333-82.474667 11.797333-48.96-1.578667-94.976-31.914667-113.386667-1.408-0.853333-2.24-2.410667-2.218667-4.074667 1.6-93.589333-22.336-167.829333-71.210667-220.736C657.109333 78.442667 570.837333 64.149333 509.546667 64.149333" /></svg>