<?xml version="1.0" standalone="no"?><!DOCTYPE svg PUBLIC "-//W3C//DTD SVG 1.1//EN" "http://www.w3.org/Graphics/SVG/1.1/DTD/svg11.dtd"><svg t="1525231215127" class="icon" style="" viewBox="0 0 1024 1024" version="1.1" xmlns="http://www.w3.org/2000/svg" p-id="6007" xmlns:xlink="http://www.w3.org/1999/xlink" width="200" height="200"><defs><style type="text/css"></style></defs><path d="M512 196.913534c173.756503 0 315.061655 141.305152 315.061655 315.061655s-141.305152 315.061655-315.061655 315.061655-315.061655-141.305152-315.061655-315.061655 141.305152-315.061655 315.061655-315.061655m0-78.765413a393.827068 393.827068 0 1 0 0.078765 787.732902A393.827068 393.827068 0 0 0 512 118.148121z" fill="#2c2c2c" p-id="6008"></path><path d="M636.921946 833.810669a39.382707 39.382707 0 0 0-27.882956 67.186898l111.374295 111.374295a39.382707 39.382707 0 1 0 55.765912-55.608382L664.804903 845.389185a39.382707 39.382707 0 0 0-27.882957-11.578516zM387.078054 833.810669a39.540238 39.540238 0 0 0-27.882957 11.499751l-111.374294 111.374295a39.382707 39.382707 0 0 0 55.765912 55.765912l111.374295-111.374295a39.382707 39.382707 0 0 0-27.882956-67.265663zM75.167016 280.956231A39.540238 39.540238 0 0 1 47.284059 269.45648 157.767124 157.767124 0 0 1 47.284059 46.629125a157.688358 157.688358 0 0 1 222.74859 0 39.382707 39.382707 0 0 1-55.687147 55.687147 78.765414 78.765414 0 0 0-111.374295 111.453061 39.382707 39.382707 0 0 1-27.804191 67.186898zM949.305577 280.956231a39.382707 39.382707 0 0 1-27.882957-67.186898 79.159241 79.159241 0 0 0 0-111.531826 79.159241 79.159241 0 0 0-111.45306 0 39.382707 39.382707 0 0 1-55.687148-55.687148 157.767124 157.767124 0 0 1 222.827356 0c61.279492 61.437023 61.279492 161.390333 0 222.74859a38.752584 38.752584 0 0 1-27.804191 11.657282zM397.553854 400.600894a39.382707 39.382707 0 0 0-27.882957 67.186898l111.374295 111.374295a39.382707 39.382707 0 1 0 55.765913-55.608382L425.358045 412.100644a39.225176 39.225176 0 0 0-27.804191-11.49975z" fill="#2c2c2c" p-id="6009"></path><path d="M677.092307 344.913746a39.540238 39.540238 0 0 0-27.882956 11.499751L482.147908 523.474939a39.382707 39.382707 0 0 0 55.765913 55.765913L704.975264 412.17941a39.382707 39.382707 0 0 0-27.882957-67.265664z" fill="#2c2c2c" p-id="6010"></path></svg>