<?xml version="1.0" standalone="no"?><!DOCTYPE svg PUBLIC "-//W3C//DTD SVG 1.1//EN" "http://www.w3.org/Graphics/SVG/1.1/DTD/svg11.dtd"><svg t="1525231107550" class="icon" style="" viewBox="0 0 1024 1024" version="1.1" xmlns="http://www.w3.org/2000/svg" p-id="2304" xmlns:xlink="http://www.w3.org/1999/xlink" width="200" height="200"><defs><style type="text/css"></style></defs><path d="M585.536 200.576C585.216 192.96 582.528 186.24 577.92 180.224 569.344 169.28 557.76 165.888 544.32 165.952 387.456 166.08 230.592 166.016 73.792 166.016c-2.688 0-5.312 0.128-7.936 0.32C48.256 167.552 33.984 181.76 32.64 199.36 32.384 202.368 32.256 205.312 32.256 208.384c0 167.808 0.192 335.616-0.256 503.488-0.128 27.136 17.344 44.096 43.136 42.88 20.16-1.024 40.512-0.192 60.736-0.192 2.048 0 4.032 0 6.464 0 10.56-64.192 60.736-107.2 114.368-111.04 79.872-5.824 126.08 35.84 146.24 110.784 0.064 0 0.64 0.192 1.216 0.192 48.256 0 96.512 0.128 144.768-0.192 5.504 0 11.456-1.344 16.32-3.84 14.976-7.424 20.544-20.352 20.544-36.736C585.6 544.768 585.664 375.808 585.664 206.848 585.664 204.8 585.664 202.688 585.536 200.576z" p-id="2305" fill="#2c2c2c"></path><path d="M991.424 525.76c-3.84-25.664-14.912-48.256-29.952-68.992-13.44-18.496-27.328-36.736-41.28-54.848-17.792-23.296-35.712-46.528-54.08-69.376-11.136-13.888-26.176-19.584-44.032-19.52-52.736 0.192-105.536 0.064-158.4 0.128-4.48 0.064-9.152 0.384-13.44 1.536-17.472 4.672-27.264 18.56-27.264 38.336 0 120.512 0 241.088 0 361.6 0 2.432 0 4.864 0.256 7.296 1.856 18.24 18.688 33.344 36.16 31.936 5.184-31.744 19.776-58.752 44.224-79.936 24.768-21.376 53.824-31.808 86.464-31.808 53.952-0.128 116.608 38.656 128.896 112.448 7.616 0 15.36 0.064 23.04-0.064 6.976-0.128 14.208 0.448 20.928-1.024 17.92-3.84 28.864-18.368 28.864-37.632 0.064-60.352 0-120.768 0-181.056C992 531.84 991.872 528.704 991.424 525.76zM733.76 533.824c0-49.024 0-97.664 0-147.392 2.176 0 4.352 0 6.592 0 25.856 0 51.84 0.32 77.76-0.128 9.216-0.192 16 3.392 20.928 10.176 27.2 37.248 54.272 74.624 80.896 112.32 4.416 6.336 6.72 14.208 9.92 21.44 0.448 0.896 0.064 2.176 0.064 3.584C864.512 533.824 799.424 533.824 733.76 533.824z" p-id="2306" fill="#2c2c2c"></path><path d="M272.256 688.384c-47.168-0.128-85.248 37.568-85.312 84.736-0.064 46.976 37.952 84.928 85.12 84.928 47.104 0 85.312-38.144 85.184-85.056C357.184 726.336 319.296 688.576 272.256 688.384z" p-id="2307" fill="#2c2c2c"></path><path d="M789.568 688.384c-46.976-0.448-85.568 37.504-85.824 84.416-0.256 46.848 37.76 84.928 84.992 85.248 46.784 0.256 84.864-37.248 85.312-84.16C874.624 726.912 836.992 688.832 789.568 688.384z" p-id="2308" fill="#2c2c2c"></path></svg>