<?xml version="1.0" standalone="no"?><!DOCTYPE svg PUBLIC "-//W3C//DTD SVG 1.1//EN" "http://www.w3.org/Graphics/SVG/1.1/DTD/svg11.dtd"><svg t="1524995472756" class="icon" style="" viewBox="0 0 1028 1024" version="1.1" xmlns="http://www.w3.org/2000/svg" p-id="8576" xmlns:xlink="http://www.w3.org/1999/xlink" width="200.78125" height="200"><defs><style type="text/css"></style></defs><path d="M476.978805 476.978805H184.971098A185.464355 185.464355 0 0 1 0 292.007707V184.971098A185.464355 185.464355 0 0 1 184.971098 0h107.036609a185.464355 185.464355 0 0 1 184.971098 184.971098zM184.971098 72.015414a113.44894 113.44894 0 0 0-112.955684 112.955684v107.036609a113.44894 113.44894 0 0 0 112.955684 112.955684h219.992293V184.971098a113.44894 113.44894 0 0 0-112.955684-112.955684zM843.468208 476.978805h-291.514451V184.971098A185.464355 185.464355 0 0 1 736.924855 0h106.543353a184.971098 184.971098 0 0 1 184.971098 184.971098v107.036609a184.971098 184.971098 0 0 1-184.971098 184.971098z m-219.992293-72.015414h219.992293a113.44894 113.44894 0 0 0 113.44894-112.955684V184.971098a113.44894 113.44894 0 0 0-113.44894-112.955684h-106.543353a113.44894 113.44894 0 0 0-112.955684 112.955684zM843.468208 1024h-106.543353A185.464355 185.464355 0 0 1 551.953757 838.535645v-291.021194h291.514451a184.971098 184.971098 0 0 1 184.971098 184.971098V838.535645a184.971098 184.971098 0 0 1-184.971098 184.971099z m-219.992293-404.963391V838.535645a113.44894 113.44894 0 0 0 112.955684 112.955684h107.036609A112.955684 112.955684 0 0 0 956.917148 838.535645v-106.050096a113.44894 113.44894 0 0 0-112.955684-112.955684zM292.007707 1024H184.971098A185.464355 185.464355 0 0 1 0 838.535645v-106.050096a185.464355 185.464355 0 0 1 184.971098-184.971098h292.007707V838.535645a185.464355 185.464355 0 0 1-184.971098 185.464355z m-107.036609-404.963391a113.44894 113.44894 0 0 0-112.955684 112.955684V838.535645a113.44894 113.44894 0 0 0 112.955684 112.955684h107.036609A113.44894 113.44894 0 0 0 404.963391 838.535645v-219.499036z" fill="#2c2c2c" p-id="8577"></path></svg>