<?xml version="1.0" standalone="no"?><!DOCTYPE svg PUBLIC "-//W3C//DTD SVG 1.1//EN" "http://www.w3.org/Graphics/SVG/1.1/DTD/svg11.dtd"><svg t="1524995541669" class="icon" style="" viewBox="0 0 1024 1024" version="1.1" xmlns="http://www.w3.org/2000/svg" p-id="9553" xmlns:xlink="http://www.w3.org/1999/xlink" width="200" height="200"><defs><style type="text/css"></style></defs><path d="M914.432559 729.624483 324.58761 729.624483c-4.338818-0.23843-31.824823-2.682086-51.014884-26.63973-17.61724-22.062482-20.215414-52.635801-20.453844-56.056714C214.190267 432.079786 147.870816 78.20413 136.713708 52.256154c-5.7694-9.392928-26.985608-12.860912-35.901675-12.860912-0.071631 0-0.143263 0-0.190335 0L53.874001 39.395242c-10.775414 0-19.523659-8.736988-19.523659-19.523659s8.749268-19.523659 19.523659-19.523659l46.628994 0c0.071631 0 0.166799 0 0.261966 0 6.198166 0 50.776454 1.144056 69.966515 32.80208 14.303774 23.636327 89.443102 433.724239 121.077589 608.951099 0.715291 8.021697 3.790326 25.865087 12.276604 36.484959 8.439206 10.536984 21.645996 12.014638 21.7647 12.026918l588.581166-0.035816c10.775414 0 19.523659 8.736988 19.523659 19.523659C933.956218 720.887494 925.207973 729.624483 914.432559 729.624483z" p-id="9554" fill="#2c2c2c"></path><path d="M258.531148 559.319725c-9.893324 0-18.379603-7.497765-19.404955-17.556864-1.096984-10.739599 6.722098-20.322861 17.450441-21.407566l617.807814-62.74402c6.818289-0.441045 20.430308-3.492544 24.839735-10.596336 5.316076-8.570189 9.988492-26.747177 11.704576-36.175921l37.594223-220.354664c2.336208-11.060917 2.908236-26.187429 0.261966-31.478945-2.312672-4.6366-17.425881-8.450463-28.534893-8.450463-0.214894 0-0.405229 0-0.595564 0L183.891194 150.554948c-10.775414 0-19.523659-8.736988-19.523659-19.523659s8.749268-19.523659 19.523659-19.523659l735.500307 0c4.910846-0.107447 49.442062 0.261966 64.341401 30.024827 10.178827 20.358677 4.41045 50.526767 3.146667 56.366775l-37.474496 219.686445c-0.620124 3.385097-6.007831 32.289404-16.97358 50.01409-16.353456 26.318412-51.206242 28.749788-55.115272 28.940123l-616.782461 62.672388C259.865539 559.28391 259.198344 559.319725 258.531148 559.319725z" p-id="9555" fill="#2c2c2c"></path><path d="M435.462836 1023.653099c-63.172785 0-114.545826-51.384297-114.545826-114.545826s51.373041-114.545826 114.545826-114.545826c63.149249 0 114.52229 51.384297 114.52229 114.545826S498.612085 1023.653099 435.462836 1023.653099zM435.462836 833.609789c-41.62298 0-75.497485 33.874505-75.497485 75.497485 0 41.62298 33.874505 75.497485 75.497485 75.497485s75.473949-33.875528 75.473949-75.497485C510.936785 867.484294 477.084793 833.609789 435.462836 833.609789z" p-id="9556" fill="#2c2c2c"></path><path d="M808.564369 1023.653099c-63.172785 0-114.545826-51.384297-114.545826-114.545826s51.373041-114.545826 114.545826-114.545826 114.545826 51.384297 114.545826 114.545826S871.737154 1023.653099 808.564369 1023.653099zM808.564369 833.609789c-41.62298 0-75.497485 33.874505-75.497485 75.497485 0 41.62298 33.874505 75.497485 75.497485 75.497485 41.62298 0 75.497485-33.875528 75.497485-75.497485C884.061854 867.484294 850.187349 833.609789 808.564369 833.609789z" p-id="9557" fill="#2c2c2c"></path></svg>