<?xml version="1.0" standalone="no"?><!DOCTYPE svg PUBLIC "-//W3C//DTD SVG 1.1//EN" "http://www.w3.org/Graphics/SVG/1.1/DTD/svg11.dtd"><svg t="1524994413343" class="icon" style="" viewBox="0 0 1024 1024" version="1.1" xmlns="http://www.w3.org/2000/svg" p-id="1475" xmlns:xlink="http://www.w3.org/1999/xlink" width="200" height="200"><defs><style type="text/css"></style></defs><path d="M978.788286 454.528054l-61.057611-55.468312c-0.88823-0.908696-1.829671-1.76418-2.821255-2.562359L573.324694 86.181825c-0.280386-0.255827-0.566912-0.505513-0.856507-0.750083-35.796274-30.261211-87.769996-30.269397-123.574457-0.01842-0.289596 0.24457-0.575098 0.494257-0.855484 0.74906L42.311665 454.521914c-13.047154 11.845793-14.021342 32.025391-2.175549 45.071522 6.297426 6.935969 14.94948 10.460236 23.633257 10.460236 7.65126 0 15.328104-2.735297 21.438265-8.283664l10.357905-9.404184 0 370.150318c0 52.782134 42.940998 95.723132 95.723132 95.723132l639.810944 0c52.78111 0 95.722108-42.940998 95.722108-95.723132L926.821727 493.536486l9.05626 8.226359c13.043061 11.847839 33.222659 10.880815 45.072545-2.162246C992.799394 486.557538 991.831346 466.37794 978.788286 454.528054zM543.374568 894.423853l-63.85226 0c0.084934-0.950651 0.1361-1.911536 0.1361-2.883677l0-189.628872 63.580061 0 0 189.628872C543.238468 892.512317 543.289634 893.473201 543.374568 894.423853zM863.006306 862.515119c0 17.593703-14.312984 31.908734-31.907711 31.908734L606.91779 894.423853c0.084934-0.950651 0.1361-1.911536 0.1361-2.883677l0-221.535559c0-17.622356-14.285355-31.907711-31.907711-31.907711L447.750697 638.096906c-17.622356 0-31.907711 14.285355-31.907711 31.907711l0 221.535559c0 0.973164 0.051165 1.933025 0.1361 2.883677L191.288674 894.423853c-17.593703 0-31.907711-14.314007-31.907711-31.908734L159.380964 434.42725l331.060021-300.56959c11.799744-9.677407 28.665877-9.677407 40.463574 0.004093L863.006306 435.56312 863.006306 862.515119z" p-id="1476"></path></svg>