<?xml version="1.0" standalone="no"?><!DOCTYPE svg PUBLIC "-//W3C//DTD SVG 1.1//EN" "http://www.w3.org/Graphics/SVG/1.1/DTD/svg11.dtd"><svg t="1525230938226" class="icon" style="" viewBox="0 0 1024 1024" version="1.1" xmlns="http://www.w3.org/2000/svg" p-id="1775" xmlns:xlink="http://www.w3.org/1999/xlink" width="200" height="200"><defs><style type="text/css"></style></defs><path d="M921.8048 128 102.1952 128c-44.4416 0-80.896 35.84-80.896 79.6672l0 608.768c0 43.8272 36.352 79.6672 80.896 79.6672l819.712 0c44.4416 0 80.7936-35.84 80.7936-79.6672L1002.7008 207.6672C1002.7008 163.84 966.3488 128 921.8048 128zM960 816.3328c0 20.3776-17.1008 36.9664-38.1952 36.9664L102.1952 853.2992c-21.0944 0-38.1952-16.5888-38.1952-36.9664L64 207.6672c0-20.3776 17.1008-36.9664 38.1952-36.9664l819.712 0c20.992 0 38.1952 16.5888 38.1952 36.9664L960.1024 816.3328z" p-id="1776" fill="#2c2c2c"></path><path d="M874.7008 298.7008c0-11.776-9.6256-21.2992-21.2992-21.2992L170.7008 277.4016c-11.776 0-21.2992 9.6256-21.2992 21.2992 0 11.776 9.6256 21.2992 21.2992 21.2992l682.7008 0C865.0752 320 874.7008 310.3744 874.7008 298.7008z" p-id="1777" fill="#2c2c2c"></path><path d="M832 405.2992l-128 0c-23.4496 0-42.7008 19.2512-42.7008 42.7008l0 85.2992c0 23.4496 19.2512 42.7008 42.7008 42.7008l128 0c23.4496 0 42.7008-19.1488 42.7008-42.7008l0-85.2992C874.7008 424.5504 855.4496 405.2992 832 405.2992zM832 533.2992l-128 0 0-85.2992 128 0L832 533.2992z" p-id="1778" fill="#2c2c2c"></path></svg>