<?xml version="1.0" standalone="no"?><!DOCTYPE svg PUBLIC "-//W3C//DTD SVG 1.1//EN" "http://www.w3.org/Graphics/SVG/1.1/DTD/svg11.dtd"><svg t="1525508347482" class="icon" style="" viewBox="0 0 1032 1024" version="1.1" xmlns="http://www.w3.org/2000/svg" p-id="2011" xmlns:xlink="http://www.w3.org/1999/xlink" width="201.5625" height="200"><defs><style type="text/css"></style></defs><path d="M85.825737 214.431767l864.571964 0c44.777833 0 81.055061-36.291554 81.055061-81.054037 0-44.76146-36.277228-81.053014-81.055061-81.053014L85.825737 52.324716c-44.773739 0-81.054037 36.291554-81.054037 81.053014C4.7717 178.140213 41.051998 214.431767 85.825737 214.431767zM950.397702 430.575526 85.825737 430.575526c-44.773739 0-81.054037 36.278251-81.054037 81.053014 0 44.774763 36.279275 81.053014 81.054037 81.053014l864.571964 0c44.777833 0 81.055061-36.277228 81.055061-81.053014C1031.452762 466.853777 995.175534 430.575526 950.397702 430.575526zM950.397702 808.826336 85.825737 808.826336c-44.773739 0-81.054037 36.279275-81.054037 81.051991 0 44.776809 36.279275 81.055061 81.054037 81.055061l864.571964 0c44.777833 0 81.055061-36.278251 81.055061-81.055061C1031.452762 845.10561 995.175534 808.826336 950.397702 808.826336z" p-id="2012" fill="#2c2c2c"></path></svg>