<?xml version="1.0" standalone="no"?><!DOCTYPE svg PUBLIC "-//W3C//DTD SVG 1.1//EN" "http://www.w3.org/Graphics/SVG/1.1/DTD/svg11.dtd"><svg t="1525231279985" class="icon" style="" viewBox="0 0 1024 1024" version="1.1" xmlns="http://www.w3.org/2000/svg" p-id="7473" xmlns:xlink="http://www.w3.org/1999/xlink" width="200" height="200"><defs><style type="text/css"></style></defs><path d="M877.166305 179.076538 435.369204 179.076538 146.778436 179.076538c-44.060495 0-79.917144 39.660278-79.917144 88.447425l0 488.953098c0 48.677653 35.856649 88.446401 79.917144 88.446401l274.955212 0 455.43368 0c44.113707 0 79.970356-39.659255 79.970356-88.446401L957.137685 324.459696l0-7.225565 0-49.655933C957.137685 218.845287 921.281035 179.076538 877.166305 179.076538zM146.778436 234.709603l274.955212 0 455.43368 0c13.201673 0 24.339338 15.102976 24.339338 32.868595l0 49.655933 0 7.225565 0 19.612687L122.439098 344.072383l0-76.54842C122.439098 249.704109 133.576763 234.709603 146.778436 234.709603zM901.506666 399.704424l0 55.632041L122.439098 455.336466l0-55.632041L901.506666 399.704424zM877.166305 789.29142 435.369204 789.29142 146.778436 789.29142c-13.20065 0-24.338315-15.102976-24.338315-32.813337L122.440122 510.967484l779.066545 0 0 245.509577C901.506666 774.296915 890.369002 789.29142 877.166305 789.29142z" p-id="7474" fill="#2c2c2c"></path><path d="M818.166563 677.864632 651.269415 677.864632c-15.374152 0-27.816532 12.440333-27.816532 27.816532 0 15.374152 12.441357 27.815509 27.816532 27.815509l166.897148 0c15.374152 0 27.815509-12.440333 27.815509-27.815509C845.982072 690.304965 833.541739 677.864632 818.166563 677.864632z" p-id="7475" fill="#2c2c2c"></path></svg>