<?xml version="1.0" standalone="no"?><!DOCTYPE svg PUBLIC "-//W3C//DTD SVG 1.1//EN" "http://www.w3.org/Graphics/SVG/1.1/DTD/svg11.dtd"><svg t="1525231178668" class="icon" style="" viewBox="0 0 1024 1024" version="1.1" xmlns="http://www.w3.org/2000/svg" p-id="3858" xmlns:xlink="http://www.w3.org/1999/xlink" width="200" height="200"><defs><style type="text/css"></style></defs><path d="M352 646.4 313.6 646.4 313.6 537.6l44.8 0L358.4 646.4M313.6 377.6l44.8 0 0 108.8-44.8 0L313.6 377.6zM704 531.2 633.6 531.2c0 0-6.4 0-6.4 0 0 0-6.4 0-6.4 0 0 0 0 6.4 0 6.4 0 6.4 0 0 0 6.4 0 6.4 6.4 6.4 12.8 6.4L704 550.4c6.4 0 12.8 6.4 12.8 12.8l0 19.2c0 6.4-6.4 12.8-12.8 12.8l-19.2 0c-6.4 0-12.8 0-19.2 0-6.4 0-12.8 0-19.2 0L633.6 595.2c-6.4 0-6.4 6.4-6.4 12.8l0 44.8 0 6.4c0 6.4 0 6.4-6.4 6.4L595.2 665.6c-6.4 0-12.8-6.4-12.8-12.8 0 0 0-6.4 0-19.2 0-6.4 0-25.6 0-25.6 0-6.4 0-6.4 0-6.4 0 0 0 0-6.4 0L505.6 601.6c-6.4 0-12.8-6.4-12.8-12.8 0 0 0-6.4 0-6.4 0 0 0-6.4 0-6.4 0-6.4 0-6.4 0-12.8 0 0 6.4-6.4 6.4 0L512 563.2l19.2 0 32 0 12.8 0L576 563.2c0 0 0 0 0-6.4L576 537.6C576 537.6 576 531.2 563.2 531.2l-64 0c0 0-6.4 0-6.4 0 0 0 0 0 0-6.4L492.8 518.4c0-6.4 0-12.8 0-12.8 0-6.4 0-6.4 0-12.8 6.4 0 6.4-6.4 12.8-6.4 6.4 0 12.8 0 19.2 0 6.4 0 6.4 0 12.8 0l12.8 0c6.4 0 6.4 0 6.4-6.4 0 0 0-6.4-6.4-19.2C537.6 460.8 524.8 441.6 518.4 435.2 505.6 422.4 499.2 409.6 486.4 396.8 480 384 480 377.6 486.4 377.6c6.4 0 6.4-6.4 12.8-6.4 6.4 0 6.4-6.4 12.8-6.4 6.4-6.4 12.8 0 19.2 12.8 0 0 6.4 6.4 12.8 12.8 6.4 6.4 12.8 12.8 19.2 25.6C569.6 416 576 422.4 582.4 428.8c6.4 6.4 6.4 12.8 6.4 12.8C588.8 448 595.2 448 595.2 448 601.6 448 608 448 608 448c0 0 6.4-6.4 6.4-12.8 6.4-6.4 12.8-12.8 19.2-25.6C640 396.8 646.4 390.4 652.8 384c6.4-6.4 6.4-12.8 12.8-12.8 6.4-6.4 6.4-6.4 6.4-12.8 0 0 6.4 0 12.8 0 6.4 0 6.4 6.4 12.8 6.4 6.4 0 6.4 6.4 6.4 6.4 6.4 6.4 12.8 12.8 6.4 19.2 0 0-6.4 6.4-12.8 19.2-6.4 6.4-12.8 19.2-19.2 25.6-6.4 12.8-12.8 25.6-19.2 32-6.4 6.4-6.4 12.8-12.8 12.8 0 6.4 0 6.4 0 6.4 6.4 0 6.4 0 12.8 0L704 486.4c6.4 0 6.4 0 6.4 6.4 0 0 6.4 6.4 6.4 6.4l0 25.6C716.8 531.2 710.4 531.2 704 531.2zM915.2 371.2l0-128L358.4 243.2l0 64L313.6 307.2l0-64L108.8 243.2l0 121.6C160 396.8 198.4 448 198.4 512c0 64-38.4 115.2-89.6 147.2l0 121.6 204.8 0 0-64 44.8 0 0 64 563.2 0 0-128C864 620.8 825.6 576 825.6 512 825.6 448 864 403.2 915.2 371.2zM960 614.4l0 64 0 76.8c0 38.4-32 70.4-70.4 70.4L134.4 825.6c-38.4 0-70.4-32-70.4-70.4l0-76.8 0-64c25.6-6.4 51.2-19.2 70.4-44.8C140.8 556.8 153.6 531.2 153.6 512c0-19.2-6.4-38.4-19.2-57.6C115.2 435.2 89.6 416 64 409.6l0-64L64 268.8c0-38.4 32-70.4 70.4-70.4l755.2 0c38.4 0 70.4 32 70.4 70.4l0 76.8 0 64c-25.6 6.4-51.2 25.6-64 44.8-6.4 12.8-19.2 32-19.2 51.2 0 19.2 12.8 38.4 19.2 51.2C908.8 588.8 934.4 608 960 614.4z" p-id="3859"></path></svg>