<?xml version="1.0" standalone="no"?><!DOCTYPE svg PUBLIC "-//W3C//DTD SVG 1.1//EN" "http://www.w3.org/Graphics/SVG/1.1/DTD/svg11.dtd"><svg t="1525232642698" class="icon" style="" viewBox="0 0 1024 1024" version="1.1" xmlns="http://www.w3.org/2000/svg" p-id="10621" xmlns:xlink="http://www.w3.org/1999/xlink" width="200" height="200"><defs><style type="text/css"></style></defs><path d="M369.728 512l384.768-384.704a48.64 48.64 0 0 0 0.896-68.8 48.64 48.64 0 0 0-68.736 0.96L269.44 476.736a48.704 48.704 0 0 0-11.136 17.344c-1.024 2.304-1.024 4.736-1.472 7.04-0.896 3.648-2.048 7.168-2.048 10.88 0 3.712 1.152 7.232 1.984 10.88 0.512 2.368 0.512 4.8 1.472 7.04a48.704 48.704 0 0 0 11.136 17.344l417.216 417.28a48.576 48.576 0 0 0 68.736 0.96 48.576 48.576 0 0 0-0.896-68.736L369.728 512z" p-id="10622" fill="#2c2c2c"></path></svg>