<?xml version="1.0" standalone="no"?><!DOCTYPE svg PUBLIC "-//W3C//DTD SVG 1.1//EN" "http://www.w3.org/Graphics/SVG/1.1/DTD/svg11.dtd"><svg t="1525231136374" class="icon" style="" viewBox="0 0 1025 1024" version="1.1" xmlns="http://www.w3.org/2000/svg" p-id="2766" xmlns:xlink="http://www.w3.org/1999/xlink" width="200.1953125" height="200"><defs><style type="text/css"></style></defs><path d="M998.431003 166.198681l-140.629654-140.629654c-31.961285-31.961285-76.707084-31.961285-108.668369 0L129.084054 645.617955 378.382076 894.915977l620.048927-620.048927C1030.392288 242.905765 1030.392288 198.159966 998.431003 166.198681zM966.469718 236.513508l-588.087642 588.087642-178.983195-178.983195 588.087642-588.087642c12.784514-12.784514 25.569028-12.784514 38.353542 0l140.629654 140.629654C972.861975 210.94448 972.861975 230.121251 966.469718 236.513508z" p-id="2767"></path><path d="M1.238914 984.407575c-6.392257 25.569028 12.784514 44.745799 38.353542 38.353542l300.436078-89.491598-255.690279-255.690279L1.238914 984.407575z" p-id="2768"></path><path d="M851.409092 223.728994l-485.81153 485.81153c-6.392257 6.392257-6.392257 12.784514 0 19.176771 0 0 6.392257 6.392257 6.392257 6.392257 6.392257 0 6.392257 0 6.392257-6.392257l485.81153-485.81153c6.392257-6.392257 6.392257-12.784514 0-19.176771C864.193606 217.336737 857.801349 217.336737 851.409092 223.728994z" p-id="2769"></path></svg>