<?xml version="1.0" standalone="no"?><!DOCTYPE svg PUBLIC "-//W3C//DTD SVG 1.1//EN" "http://www.w3.org/Graphics/SVG/1.1/DTD/svg11.dtd"><svg t="1525333947811" class="icon" style="" viewBox="0 0 1024 1024" version="1.1" xmlns="http://www.w3.org/2000/svg" p-id="1905" xmlns:xlink="http://www.w3.org/1999/xlink" width="200" height="200"><defs><style type="text/css"></style></defs><path d="M830.486464 796.124515 672.790943 638.42797c44.959904-52.799318 72.109099-121.232412 72.109099-196.016087 0-167.084182-135.448007-302.533214-302.53219-302.533214s-302.533214 135.449031-302.533214 302.533214 135.449031 302.53219 302.533214 302.53219c74.782651 0 143.215745-27.149196 196.017111-72.109099L796.101988 830.531518c9.499249 9.499249 24.885227 9.499249 34.384476 0S839.986737 805.623764 830.486464 796.124515zM442.366829 698.401131c-141.380814 0-255.989248-114.631985-255.989248-255.989248 0-141.403341 114.608434-255.989248 255.989248-255.989248 141.37979 0 255.989248 114.585907 255.989248 255.989248C698.356077 583.769146 583.747643 698.401131 442.366829 698.401131z" p-id="1906" fill="#2c2c2c"></path></svg>