<?xml version="1.0" standalone="no"?><!DOCTYPE svg PUBLIC "-//W3C//DTD SVG 1.1//EN" "http://www.w3.org/Graphics/SVG/1.1/DTD/svg11.dtd"><svg t="1525231237628" class="icon" style="" viewBox="0 0 1025 1024" version="1.1" xmlns="http://www.w3.org/2000/svg" p-id="6729" xmlns:xlink="http://www.w3.org/1999/xlink" width="200.1953125" height="200"><defs><style type="text/css"></style></defs><path d="M512 42.666667c6.4 0 21.333333 2.133333 27.733333 17.066666L642.133333 277.333333c14.933333 32 44.8 55.466667 81.066667 59.733334l232.533333 36.266666c17.066667 2.133333 23.466667 14.933333 25.6 21.333334 2.133333 6.4 4.266667 19.2-6.4 32l-172.8 177.066666c-23.466667 23.466667-34.133333 57.6-27.733333 91.733334L810.666667 945.066667c2.133333 12.8-2.133333 21.333333-6.4 25.6-6.4 6.4-14.933333 10.666667-23.466667 10.666666-4.266667 0-10.666667-2.133333-14.933333-4.266666l-196.266667-108.8c-19.2-10.666667-38.4-14.933333-57.6-14.933334-19.2 0-38.4 4.266667-55.466667 14.933334l-196.266666 108.8c-4.266667 2.133333-10.666667 4.266667-14.933334 4.266666-8.533333 0-17.066667-4.266667-23.466666-10.666666-4.266667-4.266667-8.533333-12.8-6.4-25.6L256 697.6c6.4-34.133333-4.266667-66.133333-27.733333-91.733333L51.2 426.666667c-12.8-12.8-8.533333-27.733333-6.4-32 2.133333-6.4 8.533333-19.2 25.6-21.333334l232.533333-36.266666c36.266667-6.4 66.133333-27.733333 81.066667-59.733334l102.4-217.6c4.266667-14.933333 19.2-17.066667 25.6-17.066666m0-42.666667c-27.733333 0-53.333333 14.933333-66.133333 42.666667l-102.4 217.6c-8.533333 19.2-27.733333 32-49.066667 36.266666L64 330.666667c-59.733333 10.666667-85.333333 83.2-42.666667 125.866666l172.8 177.066667c14.933333 14.933333 21.333333 34.133333 17.066667 55.466667L170.666667 936.533333c-6.4 49.066667 29.866667 87.466667 72.533333 87.466667 12.8 0 23.466667-2.133333 36.266667-8.533333l196.266666-108.8c10.666667-6.4 23.466667-8.533333 36.266667-8.533334 12.8 0 25.6 2.133333 36.266667 8.533334l196.266666 108.8c10.666667 6.4 23.466667 8.533333 36.266667 8.533333 42.666667 0 81.066667-38.4 72.533333-87.466667l-40.533333-247.466666c-4.266667-19.2 2.133333-40.533333 17.066667-55.466667l172.8-179.2c42.666667-42.666667 17.066667-115.2-42.666667-125.866667l-232.533333-36.266666c-21.333333-4.266667-38.4-17.066667-49.066667-36.266667L578.133333 42.666667C565.333333 14.933333 539.733333 0 512 0z" fill="#2c2c2c" p-id="6730"></path></svg>