<?xml version="1.0" standalone="no"?><!DOCTYPE svg PUBLIC "-//W3C//DTD SVG 1.1//EN" "http://www.w3.org/Graphics/SVG/1.1/DTD/svg11.dtd"><svg t="1525231194276" class="icon" style="" viewBox="0 0 1024 1024" version="1.1" xmlns="http://www.w3.org/2000/svg" p-id="4544" xmlns:xlink="http://www.w3.org/1999/xlink" width="200" height="200"><defs><style type="text/css"></style></defs><path d="M947.2 307.2l-134.4-211.2C800 76.8 780.8 64 761.6 64L211.2 64C185.6 64 166.4 76.8 153.6 96l-128 211.2C6.4 332.8 12.8 358.4 25.6 377.6l403.2 505.6c25.6 32 76.8 32 102.4 0l409.6-505.6C960 358.4 960 326.4 947.2 307.2zM889.6 320l-147.2 0-96-192 128 0L889.6 320zM460.8 320 256 320c19.2-32 44.8-96 96-192l108.8 0L460.8 320zM499.2 128l121.6 0c51.2 96 76.8 153.6 96 192L499.2 320 499.2 128zM460.8 384l0 460.8L448 825.6 236.8 384 460.8 384zM499.2 844.8 499.2 384l230.4 0-204.8 435.2L499.2 844.8zM198.4 128l128 0L230.4 320 83.2 320 198.4 128zM217.6 384 384 736 102.4 384 217.6 384zM582.4 736 755.2 384l115.2 0L582.4 736z" p-id="4545"></path></svg>