<?xml version="1.0" standalone="no"?><!DOCTYPE svg PUBLIC "-//W3C//DTD SVG 1.1//EN" "http://www.w3.org/Graphics/SVG/1.1/DTD/svg11.dtd"><svg t="1525231302542" class="icon" style="" viewBox="0 0 1024 1024" version="1.1" xmlns="http://www.w3.org/2000/svg" p-id="7739" xmlns:xlink="http://www.w3.org/1999/xlink" width="200" height="200"><defs><style type="text/css"></style></defs><path d="M928 585.344c0-67.328-40.832-125.024-98.592-151.456-4.8-170.752-144.288-310.24-317.408-310.24-173.152 0-312.608 137.056-317.408 310.208C136.864 460.32 96 518.016 96 585.344a166.24 166.24 0 0 0 165.92 165.92h4.8c12.032 0 24.064-12 24.064-24.032v-283.744c0-12.032-12.032-24.032-24.064-24.032h-21.632c9.6-137.056 125.024-247.68 266.912-247.68 141.92 0 257.28 110.624 269.344 250.08h-24.096c-12 0-24 12.032-24 24.032V720c-76.96 84.192-182.784 132.288-295.808 132.288-14.432 0-24.032 9.632-24.032 24.032 0 14.432 9.632 24.032 24.032 24.032 127.488 0 247.68-55.328 331.84-149.088 88.96-4.8 158.72-76.928 158.72-165.92zM240.256 700.736a116.384 116.384 0 0 1-96.16-115.392c0-57.696 40.864-105.792 98.592-115.392v230.816h-2.432z m541.088 0v-230.816c55.328 9.632 98.56 57.728 98.56 115.392 0 57.76-43.232 105.856-98.56 115.424z" p-id="7740" fill="#2c2c2c"></path></svg>