<?xml version="1.0" standalone="no"?><!DOCTYPE svg PUBLIC "-//W3C//DTD SVG 1.1//EN" "http://www.w3.org/Graphics/SVG/1.1/DTD/svg11.dtd"><svg class="icon" width="200px" height="200.00px" viewBox="0 0 1024 1024" version="1.1" xmlns="http://www.w3.org/2000/svg"><path fill="#333333" d="M849.92 939.52c2.56 23.04-15.36 43.52-40.96 43.52H640V640h-256v340.48h-171.52c-23.04 0-43.52-17.92-43.52-43.52v-384h-76.8L512 66.56l212.48 248.32V128h84.48v286.72l120.32 140.8h-76.8v43.52h171.52l-171.52-199.68V84.48h-171.52v112.64L512 0l-512 596.48h128v340.48c0 48.64 38.4 87.04 84.48 87.04h212.48V683.52h171.52V1024h212.48c46.08 0 84.48-38.4 84.48-84.48v-84.48h-43.52v84.48zM852.48 683.52h43.52V768h-43.52zM384 468.48v84.48h256v-84.48c0-71.68-56.32-128-128-128s-128 58.88-128 128z m212.48 0V512h-171.52v-43.52c0-46.08 38.4-84.48 84.48-84.48 48.64 0 87.04 38.4 87.04 84.48z" /></svg>